<?xml version="1.0" encoding="UTF-8" standalone="no"?>
<!-- Created with Inkscape (http://www.inkscape.org/) -->

<svg
   version="1.1"
   id="svg1"
   width="620"
   height="402"
   viewBox="0 0 620 402"
   sodipodi:docname="CEIFALOGOWEB.svg"
   inkscape:version="1.4.2 (f4327f4, 2025-05-13)"
   xmlns:inkscape="http://www.inkscape.org/namespaces/inkscape"
   xmlns:sodipodi="http://sodipodi.sourceforge.net/DTD/sodipodi-0.dtd"
   xmlns="http://www.w3.org/2000/svg"
   xmlns:svg="http://www.w3.org/2000/svg">
  <defs
     id="defs1" />
  <sodipodi:namedview
     id="namedview1"
     pagecolor="#505050"
     bordercolor="#eeeeee"
     borderopacity="1"
     inkscape:showpageshadow="0"
     inkscape:pageopacity="0"
     inkscape:pagecheckerboard="0"
     inkscape:deskcolor="#505050"
     inkscape:zoom="0.73756219"
     inkscape:cx="334.20911"
     inkscape:cy="353.19056"
     inkscape:window-width="1440"
     inkscape:window-height="837"
     inkscape:window-x="-8"
     inkscape:window-y="-8"
     inkscape:window-maximized="1"
     inkscape:current-layer="g1" />
  <g
     inkscape:groupmode="layer"
     inkscape:label="Image"
     id="g1">
    <path
       style="fill:#333333;stroke:none"
       d="m 314.94632,20.67146 c -61.1324,6.73456 -121.76428,4.62952 -179,32.3573 -89.382712,43.30133 -166.768012,137.36649 -91.634732,231.20386 12.12692,15.14587 27.4408,29.20325 43.634733,39.9364 83.274899,55.19357 189.768399,65.46524 286.999999,52.80402 88.23425,-11.48963 216.36389,-68.51416 218.95142,-172.74042 2.62902,-105.8988 -125.0467,-161.84827 -211.95142,-176.75275 -20.4838,-3.51303 -46.30313,-9.08844 -67,-6.80841 m 162,234.56116 h 2 c 1.82904,-11.18019 26.70416,-24.11064 34.83386,-12.70515 9.29285,13.0373 -19.96844,49.16645 -29.87692,57.24464 -68.69293,56.00397 -190.20172,51.10999 -270.95694,34.93558 -25.47023,-5.10141 -78.62997,-16.56577 -89,-43.47507 10.51524,-1.5538 20.60396,9.9335 32.00044,3.31537 10.98093,-6.37683 -4.45936,-43.42494 -13.00044,-48.31537 -3.8078,9.35876 3.37842,27.89636 -4.46805,34.39932 -10.02113,8.30527 -33.67812,-19.5748 -38.23728,-26.39932 -18.531622,-27.73962 -22.601342,-76.05154 -6.232679,-106 4.78861,-8.76135 29.819949,-42.98441 42.580309,-36.61172 7.05831,3.52499 -2.49469,44.91993 10.89678,33.75958 13.76858,-11.47464 11.76175,-45.44287 -0.53908,-55.14786 14.37836,-21.24643 44.95737,-25.74148 69,-30.68024 63.36108,-13.01541 146.45398,-19.2304 207,8.76944 17.62839,8.15235 47.65204,11.62757 59.10092,28.95118 18.6901,28.28048 18.18137,82.86654 9.0614,113.95962 -4.3977,14.9933 -14.13742,27.64818 -14.16232,44 M 284.5506,72.49239 c -3.70093,2.63842 -3.09638,10.12838 -1.22089,13.65481 11.20914,21.0763 12.75177,31.85959 12.61405,57.08542 -0.25315,46.36478 0.0477,92.54572 0.002,139 -0.0128,13.10934 -18.06757,22.67072 -14.17777,33.85214 2.94864,8.47598 55.6723,7.07416 62.81269,1.90055 3.87503,-2.80765 4.06658,-8.77051 1.54357,-12.53531 -13.38032,-19.96646 -11.17793,-32.07889 -11.17793,-56.21738 0,-45.66618 -0.11111,-91.33397 7.3e-4,-137 0.0295,-12.06271 15.5567,-24.78964 12.26865,-34.87088 -3.00519,-9.21393 -55.34589,-10.08731 -62.6651,-4.86935 m -46.60428,80.74023 h -2 c -4.28087,7.80258 -5.43839,22.14983 -13.09996,27.17488 -8.66382,5.6824 -14.58563,-5.98387 -14.53873,-13.17488 0.12061,-18.48962 -0.86763,-52.13596 9.76433,-67.93008 20.29573,-30.15 24.54276,22.71942 27.15845,28.69387 2.61207,5.96619 13.68722,6.98609 16.81668,0.97071 3.8938,-7.48459 5.76514,-49.56812 -1.62714,-54.47458 -10.77069,-7.14883 -74.88788,7.4649 -83.67029,16.52472 -7.4528,7.6882 3.52976,25.57171 0.37233,36.21536 -12.20526,41.14383 -9.62506,102.46606 0.66532,144 2.28239,9.21216 -7.67006,20.77173 -1.90126,28.57986 10.19435,13.79819 54.99228,17.33973 71.06027,18.47947 5.96445,0.42306 18.87949,3.845 22.17831,-3.30304 4.37757,-9.48548 2.41752,-58.43195 -14.83239,-55.01044 -11.37816,2.25684 1.97036,33.84491 -10.54456,39.43249 -36.78068,16.42151 -40.52038,-67.6221 -34.07916,-88.16735 7.93077,-25.29644 23.73213,17.69963 28.75418,14.88328 10.1385,-5.68564 4.55537,-63.88704 -0.47638,-72.89427 m 208,75 c 15.06317,-9.36752 9.20435,-55.71327 2,-69 h -2 c -4.13132,10.75587 -21.20447,36.36693 -26.59842,9.99985 -2.58758,-12.64879 -12.36261,-69.04935 4.59845,-70.17053 19.48178,-1.28781 19.1434,21.08358 25.56592,33.1672 2.26611,4.26358 8.6322,11.34143 12.82904,4.57904 4.56134,-7.3497 -2.40619,-18.52655 -4.74762,-25.57556 -9.30576,-28.01559 -39.06714,-30.42035 -65.64737,-33.8204 -6.74734,-0.8631 -21.04105,-5.17469 -26.85141,-1.23233 -6.50159,4.41134 12.46814,34.20455 13.65262,45.05273 5.25418,48.12103 4.71359,98.75464 1.06,147 -0.90613,11.96518 -21.4889,43.14093 -16.26429,48.07214 6.92508,6.5362 55.27906,-3.51117 58.52134,-12.12091 3.34634,-8.88611 -9.3577,-14.38134 -9.68705,-22.95123 -0.67999,-17.69485 2.86838,-52.97348 8.49591,-69.99173 2.70896,-8.19215 12.41349,-11.20152 18.59003,-4.60329 4.90973,5.24492 3.5466,15.09069 6.48285,21.59502 m 102,-40 c -11.17908,-12.09644 -17.61316,-30.56326 -25.38531,-45 -1.37269,-2.54974 -9.95807,-12.99759 -5.02948,-15.26175 5.24932,-2.4115 12.47583,7.20877 15.3319,10.26248 10.69355,11.43343 21.81922,34.38936 15.08289,49.99927 m -38,-17 c 2.6441,6.88396 4.02332,14.00337 6.26141,21 2.86097,8.94377 3.83295,44.20659 -15.99267,30.17575 -12.1836,-8.62247 -0.37796,-44.81982 9.73126,-51.17575 m -40,92 c -3.22391,14.14557 -23.22482,19.69922 -25.54688,31.04712 -2.06961,10.11426 44.8729,-2.35132 25.54688,-31.04712 z"
       id="path1" />
  </g>
</svg>
